<?xml version="1.0" encoding="UTF-8" standalone="no"?><svg xmlns="http://www.w3.org/2000/svg" xmlns:xlink="http://www.w3.org/1999/xlink" contentStyleType="text/css" height="685px" preserveAspectRatio="none" style="width:671px;height:685px;background:#FFFFFF;" version="1.1" viewBox="0 0 671 685" width="671px" zoomAndPan="magnify"><defs/><g><rect height="11.7773" style="stroke:#00000000;stroke-width:1.0;fill:none;" width="112" x="545" y="0"/><text fill="#888888" font-family="sans-serif" font-size="10" lengthAdjust="spacing" textLength="112" x="545" y="9.668">Made by Garrett Sutula</text><rect height="26.4883" style="stroke:#00000000;stroke-width:1.0;fill:none;" width="278" x="189.5" y="17.7773"/><text fill="#000000" font-family="sans-serif" font-size="14" font-weight="bold" lengthAdjust="spacing" text-decoration="underline" textLength="75" x="194.5" y="36.3125">Trellis CLI</text><text fill="#000000" font-family="sans-serif" font-size="14" font-weight="bold" lengthAdjust="spacing" textLength="188" x="274.5" y="36.3125">- Application Architecture</text><!--MD5=[7914b04aec008c64a90eebee73fb9d36]
cluster project--><g id="cluster_project"><path d="M161.5,232.7656 L264.5,232.7656 A3.75,3.75 0 0 1 267,235.2656 L274,255.2539 L661.5,255.2539 A2.5,2.5 0 0 1 664,257.7539 L664,676.2656 A2.5,2.5 0 0 1 661.5,678.7656 L161.5,678.7656 A2.5,2.5 0 0 1 159,676.2656 L159,235.2656 A2.5,2.5 0 0 1 161.5,232.7656 " style="stroke:#000000;stroke-width:1.5;fill:none;"/><line style="stroke:#000000;stroke-width:1.5;fill:none;" x1="159" x2="274" y1="255.2539" y2="255.2539"/><text fill="#000000" font-family="sans-serif" font-size="14" font-weight="bold" lengthAdjust="spacing" textLength="102" x="163" y="248.3008">Trellis Project</text></g><!--MD5=[aa3b458352135463a5a0f2d2a48ef4d9]
entity models--><g id="elem_models"><rect fill="#F1F1F1" height="48.9766" rx="2.5" ry="2.5" style="stroke:#181818;stroke-width:0.5;" width="108" x="229" y="445.7656"/><rect fill="#F1F1F1" height="48.9766" rx="2.5" ry="2.5" style="stroke:#181818;stroke-width:0.5;" width="108" x="225" y="441.7656"/><text fill="#000000" font-family="sans-serif" font-size="14" font-style="italic" lengthAdjust="spacing" textLength="92" x="233" y="463.3008">«YAML/JSON»</text><text fill="#000000" font-family="sans-serif" font-size="14" lengthAdjust="spacing" textLength="49" x="254.5" y="479.7891">Models</text></g><!--MD5=[08d9b5744ff2301332a382dd7d96185e]
entity schema--><g id="elem_schema"><rect fill="#F1F1F1" height="48.9766" rx="2.5" ry="2.5" style="stroke:#181818;stroke-width:0.5;" width="120" x="398" y="279.7656"/><rect fill="#F1F1F1" height="48.9766" rx="2.5" ry="2.5" style="stroke:#181818;stroke-width:0.5;" width="120" x="394" y="275.7656"/><text fill="#000000" font-family="sans-serif" font-size="14" font-style="italic" lengthAdjust="spacing" textLength="104" x="402" y="297.3008">«JSON Schema»</text><text fill="#000000" font-family="sans-serif" font-size="14" lengthAdjust="spacing" textLength="60" x="424" y="313.7891">Schemas</text></g><!--MD5=[e995828b287532168f8bc89fd17508f6]
entity template--><g id="elem_template"><rect fill="#F1F1F1" height="48.9766" rx="2.5" ry="2.5" style="stroke:#181818;stroke-width:0.5;" width="176" x="195" y="605.7656"/><rect fill="#F1F1F1" height="48.9766" rx="2.5" ry="2.5" style="stroke:#181818;stroke-width:0.5;" width="176" x="191" y="601.7656"/><text fill="#000000" font-family="sans-serif" font-size="14" font-style="italic" lengthAdjust="spacing" textLength="160" x="199" y="623.3008">«Handlebars Template»</text><text fill="#000000" font-family="sans-serif" font-size="14" lengthAdjust="spacing" textLength="71" x="243.5" y="639.7891">Templates</text></g><!--MD5=[ce4c7fec84eccde686f151fd39cc7387]
entity script--><g id="elem_script"><rect fill="#F1F1F1" height="48.9766" rx="2.5" ry="2.5" style="stroke:#181818;stroke-width:0.5;" width="151" x="207.5" y="279.7656"/><rect fill="#F1F1F1" height="48.9766" rx="2.5" ry="2.5" style="stroke:#181818;stroke-width:0.5;" width="151" x="203.5" y="275.7656"/><text fill="#000000" font-family="sans-serif" font-size="14" font-style="italic" lengthAdjust="spacing" textLength="135" x="211.5" y="297.3008">«JavaScript Module»</text><text fill="#000000" font-family="sans-serif" font-size="14" lengthAdjust="spacing" textLength="124" x="217" y="313.7891">Processing Scripts</text></g><!--MD5=[c661d977cad040094ee01910682146de]
entity output--><g id="elem_output"><rect fill="#F1F1F1" height="32.4883" rx="2.5" ry="2.5" style="stroke:#181818;stroke-width:0.5;" width="145" x="494.5" y="614.2656"/><rect fill="#F1F1F1" height="32.4883" rx="2.5" ry="2.5" style="stroke:#181818;stroke-width:0.5;" width="145" x="490.5" y="610.2656"/><text fill="#000000" font-family="sans-serif" font-size="14" lengthAdjust="spacing" textLength="129" x="498.5" y="631.8008">Model Output Files</text></g><!--MD5=[8fc3522a43f8c7199df5e09e5bb0188e]
entity user--><g id="elem_user"><ellipse cx="41" cy="64.2656" fill="#F1F1F1" rx="8" ry="8" style="stroke:#181818;stroke-width:0.5;"/><path d="M41,72.2656 L41,99.2656 M28,80.2656 L54,80.2656 M41,99.2656 L28,114.2656 M41,99.2656 L54,114.2656 " fill="none" style="stroke:#181818;stroke-width:0.5;"/><text fill="#000000" font-family="sans-serif" font-size="14" lengthAdjust="spacing" textLength="31" x="25.5" y="129.3008">User</text></g><!--MD5=[f5c629cea7f5b71571c59f1b01a97a20]
entity trellis--><g id="elem_trellis"><ellipse cx="41" cy="302.2539" fill="#F1F1F1" rx="12" ry="12" style="stroke:#181818;stroke-width:0.5;"/><polygon fill="#181818" points="37,290.2539,43,285.2539,41,290.2539,43,295.2539,37,290.2539" style="stroke:#181818;stroke-width:1.0;"/><text fill="#000000" font-family="sans-serif" font-size="14" lengthAdjust="spacing" textLength="67" x="7.5" y="331.7891">Trellis CLI</text><text fill="#000000" font-family="sans-serif" font-size="14" font-style="italic" lengthAdjust="spacing" textLength="70" x="6" y="283.3008">«CLI Tool»</text></g><!--MD5=[95cc6159fa878d839619dd400f44bdc9]
link user to trellis--><g id="link_user_trellis"><path d="M41,132.1656 C41,169.6056 41,226.8756 41,264.2056 " fill="none" id="user-to-trellis" style="stroke:#181818;stroke-width:1.0;"/><polygon fill="#181818" points="41,269.5556,45,260.5556,41,264.5556,37,260.5556,41,269.5556" style="stroke:#181818;stroke-width:1.0;"/><text fill="#000000" font-family="sans-serif" font-size="13" lengthAdjust="spacing" textLength="28" x="51" y="175.334">User</text><text fill="#000000" font-family="sans-serif" font-size="13" font-weight="bold" lengthAdjust="spacing" textLength="46" x="42" y="190.6445">«Uses»</text><text fill="#000000" font-family="sans-serif" font-size="13" lengthAdjust="spacing" textLength="20" x="55" y="205.9551">CLI</text></g><!--MD5=[d24b031ebd39dc55ccf3add47459787a]
link trellis to project--><g id="link_trellis_project"><path d="M76.1,302.2656 C93.575,302.2656 114.64,302.2656 132.09,302.2656 C140.815,302.2656 148.6363,302.2656 154.6531,302.2656 C156.1573,302.2656 157.5488,302.2656 158.8134,302.2656 " fill="none" id="trellis-to-project" style="stroke:#181818;stroke-width:1.0;"/><polygon fill="#181818" points="158.8134,302.2656,149.8134,298.2656,153.8134,302.2656,149.8134,306.2656,158.8134,302.2656" style="stroke:#181818;stroke-width:1.0;"/><text fill="#000000" font-family="sans-serif" font-size="13" lengthAdjust="spacing" textLength="20" x="111.32" y="265.834">CLI</text><text fill="#000000" font-family="sans-serif" font-size="13" font-weight="bold" lengthAdjust="spacing" textLength="54" x="94.32" y="281.1445">«Loads»</text><text fill="#000000" font-family="sans-serif" font-size="13" lengthAdjust="spacing" textLength="43" x="99.82" y="296.4551">Project</text></g><!--MD5=[1f0c6d119ea444535b51bd4eca607ab3]
link schema to models--><g id="link_schema_models"><path d="M437.05,329.0956 C419.37,352.2256 391.51,386.3256 363,411.7656 C352.26,421.3456 339.78,430.5956 327.84,438.7056 " fill="none" id="schema-to-models" style="stroke:#181818;stroke-width:1.0;"/><polygon fill="#181818" points="323.47,441.6456,333.1706,439.943,327.6192,438.8556,328.7066,433.3043,323.47,441.6456" style="stroke:#181818;stroke-width:1.0;"/><text fill="#000000" font-family="sans-serif" font-size="13" lengthAdjust="spacing" textLength="48" x="421" y="378.334">Schema</text><text fill="#000000" font-family="sans-serif" font-size="13" font-weight="bold" lengthAdjust="spacing" textLength="76" x="407" y="393.6445">«Validates»</text><text fill="#000000" font-family="sans-serif" font-size="13" lengthAdjust="spacing" textLength="45" x="422.5" y="408.9551">Models</text></g><!--MD5=[91c73b7551893789dd2613072ab00c55]
link script to models--><g id="link_script_models"><path d="M281,328.8856 C281,357.9256 281,405.2556 281,436.3256 " fill="none" id="script-to-models" style="stroke:#181818;stroke-width:1.0;"/><polygon fill="#181818" points="281,441.5456,285,432.5456,281,436.5456,277,432.5456,281,441.5456" style="stroke:#181818;stroke-width:1.0;"/><text fill="#000000" font-family="sans-serif" font-size="13" lengthAdjust="spacing" textLength="36" x="300" y="378.334">Script</text><text fill="#000000" font-family="sans-serif" font-size="13" font-weight="bold" lengthAdjust="spacing" textLength="72" x="282" y="393.6445">«Enriches»</text><text fill="#000000" font-family="sans-serif" font-size="13" lengthAdjust="spacing" textLength="45" x="295.5" y="408.9551">Models</text></g><!--MD5=[5f52734f0ef0c08e183890548676dde1]
link models to template--><g id="link_models_template"><path d="M281,495.0056 C281,522.6656 281,566.6256 281,596.1956 " fill="none" id="models-to-template" style="stroke:#181818;stroke-width:1.0;"/><polygon fill="#181818" points="281,601.5356,285,592.5356,281,596.5356,277,592.5356,281,601.5356" style="stroke:#181818;stroke-width:1.0;"/><text fill="#000000" font-family="sans-serif" font-size="13" lengthAdjust="spacing" textLength="45" x="293.5" y="538.334">Models</text><text fill="#000000" font-family="sans-serif" font-size="13" font-weight="bold" lengthAdjust="spacing" textLength="68" x="282" y="553.6445">«Fed Into»</text><text fill="#000000" font-family="sans-serif" font-size="13" lengthAdjust="spacing" textLength="58" x="287" y="568.9551">Template</text></g><!--MD5=[38ace04a8cfdbc879725300347d2eead]
link template to output--><g id="link_template_output"><path d="M371.25,628.2656 C407.78,628.2656 449.61,628.2656 485.03,628.2656 " fill="none" id="template-to-output" style="stroke:#181818;stroke-width:1.0;"/><polygon fill="#181818" points="490.21,628.2656,481.21,624.2656,485.21,628.2656,481.21,632.2656,490.21,628.2656" style="stroke:#181818;stroke-width:1.0;"/><text fill="#000000" font-family="sans-serif" font-size="13" lengthAdjust="spacing" textLength="58" x="401.75" y="591.834">Template</text><text fill="#000000" font-family="sans-serif" font-size="13" font-weight="bold" lengthAdjust="spacing" textLength="83" x="389.25" y="607.1445">«Generates»</text><text fill="#000000" font-family="sans-serif" font-size="13" lengthAdjust="spacing" textLength="77" x="392.25" y="622.4551">Output Files</text></g><!--MD5=[3e489ff07aee006219acaeff13aa836a]
@startuml App Architecture
header Made by Garrett Sutula
title __Trellis CLI__ - Application Architecture

actor "User" as user
control "Trellis CLI" as trellis <<CLI Tool>>
package "Trellis Project" as project {
  collections "Models" as models <<YAML/JSON>>
  collections "Schemas" as schema <<JSON Schema>>
  collections "Templates" as template <<Handlebars Template>>
  collections "Processing Scripts" as script <<JavaScript Module>>
  collections "Model Output Files" as output
}


user - -> trellis: User\n**<<Uses>>**\nCLI
trellis -> project: CLI\n**<<Loads>>**\nProject
schema - -> models: Schema\n**<<Validates>>**\nModels
script - -> models: Script\n**<<Enriches>>**\nModels
models - -> template: Models\n**<<Fed Into>>**\nTemplate
template -> output: Template\n**<<Generates>>**\nOutput Files

@enduml

PlantUML version 1.2022.5(Sat Apr 30 06:55:52 EDT 2022)
(GPL source distribution)
Java Runtime: OpenJDK Runtime Environment
JVM: OpenJDK 64-Bit Server VM
Default Encoding: UTF-8
Language: en
Country: US
--></g></svg>