<?xml version="1.0" encoding="UTF-8" standalone="no"?><svg xmlns="http://www.w3.org/2000/svg" xmlns:xlink="http://www.w3.org/1999/xlink" contentStyleType="text/css" height="860px" preserveAspectRatio="none" style="width:738px;height:860px;background:#FFFFFF;" version="1.1" viewBox="0 0 738 860" width="738px" zoomAndPan="magnify"><defs/><g><rect height="11.7773" style="stroke:#00000000;stroke-width:1.0;fill:none;" width="112" x="612" y="0"/><text fill="#888888" font-family="sans-serif" font-size="10" lengthAdjust="spacing" textLength="112" x="612" y="9.668">Made by Garrett Sutula</text><rect height="26.4883" style="stroke:#00000000;stroke-width:1.0;fill:none;" width="278" x="223" y="17.7773"/><text fill="#000000" font-family="sans-serif" font-size="14" font-weight="bold" lengthAdjust="spacing" text-decoration="underline" textLength="75" x="228" y="36.3125">Trellis CLI</text><text fill="#000000" font-family="sans-serif" font-size="14" font-weight="bold" lengthAdjust="spacing" textLength="188" x="308" y="36.3125">- Application Architecture</text><!--MD5=[7914b04aec008c64a90eebee73fb9d36]
cluster project--><g id="cluster_project"><path d="M161.5,232.7656 L264.5,232.7656 A3.75,3.75 0 0 1 267,235.2656 L274,255.2539 L728.5,255.2539 A2.5,2.5 0 0 1 731,257.7539 L731,851.2656 A2.5,2.5 0 0 1 728.5,853.7656 L161.5,853.7656 A2.5,2.5 0 0 1 159,851.2656 L159,235.2656 A2.5,2.5 0 0 1 161.5,232.7656 " style="stroke:#000000;stroke-width:1.5;fill:none;"/><line style="stroke:#000000;stroke-width:1.5;fill:none;" x1="159" x2="274" y1="255.2539" y2="255.2539"/><text fill="#000000" font-family="sans-serif" font-size="14" font-weight="bold" lengthAdjust="spacing" textLength="102" x="163" y="248.3008">Trellis Project</text><text fill="#000000" font-family="sans-serif" font-size="14" font-style="italic" lengthAdjust="spacing" textLength="58" x="420" y="270.7891">«Folder»</text></g><!--MD5=[6b1f4e1d733bd8d7247abeebb7967d80]
cluster modelFolder--><g id="cluster_modelFolder"><path d="M519.5,502.7656 L601.5,502.7656 A3.75,3.75 0 0 1 604,505.2656 L611,525.2539 L658.5,525.2539 A2.5,2.5 0 0 1 661,527.7539 L661,620.2656 A2.5,2.5 0 0 1 658.5,622.7656 L519.5,622.7656 A2.5,2.5 0 0 1 517,620.2656 L517,505.2656 A2.5,2.5 0 0 1 519.5,502.7656 " style="stroke:#000000;stroke-width:1.5;fill:none;"/><line style="stroke:#000000;stroke-width:1.5;fill:none;" x1="517" x2="611" y1="525.2539" y2="525.2539"/><text fill="#000000" font-family="sans-serif" font-size="14" font-weight="bold" lengthAdjust="spacing" textLength="81" x="521" y="518.3008">./models/...</text><text fill="#000000" font-family="sans-serif" font-size="14" font-style="italic" lengthAdjust="spacing" textLength="58" x="564" y="540.7891">«Folder»</text></g><!--MD5=[177923e8d853fd1460cc8639486460b8]
cluster schemaFolder--><g id="cluster_schemaFolder"><path d="M545.5,315.7656 L636.5,315.7656 A3.75,3.75 0 0 1 639,318.2656 L646,338.2539 L696.5,338.2539 A2.5,2.5 0 0 1 699,340.7539 L699,417.2656 A2.5,2.5 0 0 1 696.5,419.7656 L545.5,419.7656 A2.5,2.5 0 0 1 543,417.2656 L543,318.2656 A2.5,2.5 0 0 1 545.5,315.7656 " style="stroke:#000000;stroke-width:1.5;fill:none;"/><line style="stroke:#000000;stroke-width:1.5;fill:none;" x1="543" x2="646" y1="338.2539" y2="338.2539"/><text fill="#000000" font-family="sans-serif" font-size="14" font-weight="bold" lengthAdjust="spacing" textLength="90" x="547" y="331.3008">./schemas/...</text></g><!--MD5=[00c60af1cd5b77427bc8bf6a0f23459e]
cluster templatesFolder--><g id="cluster_templatesFolder"><path d="M485.5,701.7656 L586.5,701.7656 A3.75,3.75 0 0 1 589,704.2656 L596,724.2539 L692.5,724.2539 A2.5,2.5 0 0 1 695,726.7539 L695,819.2656 A2.5,2.5 0 0 1 692.5,821.7656 L485.5,821.7656 A2.5,2.5 0 0 1 483,819.2656 L483,704.2656 A2.5,2.5 0 0 1 485.5,701.7656 " style="stroke:#000000;stroke-width:1.5;fill:none;"/><line style="stroke:#000000;stroke-width:1.5;fill:none;" x1="483" x2="596" y1="724.2539" y2="724.2539"/><text fill="#000000" font-family="sans-serif" font-size="14" font-weight="bold" lengthAdjust="spacing" textLength="100" x="487" y="717.3008">./templates/...</text><text fill="#000000" font-family="sans-serif" font-size="14" font-style="italic" lengthAdjust="spacing" textLength="58" x="564" y="739.7891">«Folder»</text></g><!--MD5=[c59fcda9a1b5328cb1abce27d4847e6c]
cluster scriptsFolder--><g id="cluster_scriptsFolder"><path d="M333.5,299.7656 L440.5,299.7656 A3.75,3.75 0 0 1 443,302.2656 L450,322.2539 L516.5,322.2539 A2.5,2.5 0 0 1 519,324.7539 L519,417.2656 A2.5,2.5 0 0 1 516.5,419.7656 L333.5,419.7656 A2.5,2.5 0 0 1 331,417.2656 L331,302.2656 A2.5,2.5 0 0 1 333.5,299.7656 " style="stroke:#000000;stroke-width:1.5;fill:none;"/><line style="stroke:#000000;stroke-width:1.5;fill:none;" x1="331" x2="450" y1="322.2539" y2="322.2539"/><text fill="#000000" font-family="sans-serif" font-size="14" font-weight="bold" lengthAdjust="spacing" textLength="106" x="335" y="315.3008">./processors/...</text><text fill="#000000" font-family="sans-serif" font-size="14" font-style="italic" lengthAdjust="spacing" textLength="58" x="400" y="337.7891">«Folder»</text></g><!--MD5=[7dc7e89b116cdd707b9f4a8b486f7d81]
cluster outputFolder--><g id="cluster_outputFolder"><path d="M216.5,710.2656 L293.5,710.2656 A3.75,3.75 0 0 1 296,712.7656 L303,732.7539 L393.5,732.7539 A2.5,2.5 0 0 1 396,735.2539 L396,810.7656 A2.5,2.5 0 0 1 393.5,813.2656 L216.5,813.2656 A2.5,2.5 0 0 1 214,810.7656 L214,712.7656 A2.5,2.5 0 0 1 216.5,710.2656 " style="stroke:#000000;stroke-width:1.5;fill:none;"/><line style="stroke:#000000;stroke-width:1.5;fill:none;" x1="214" x2="303" y1="732.7539" y2="732.7539"/><text fill="#000000" font-family="sans-serif" font-size="14" font-weight="bold" lengthAdjust="spacing" textLength="76" x="218" y="725.8008">./output/...</text><text fill="#000000" font-family="sans-serif" font-size="14" font-style="italic" lengthAdjust="spacing" textLength="58" x="280" y="748.2891">«Folder»</text></g><!--MD5=[4fde075a24f3471be24e36bc159e68ec]
entity package.json--><g id="elem_package.json"><path d="M202,353.2656 L202,401.2422 A2.5,2.5 0 0 0 204.5,403.7422 L309.5,403.7422 A2.5,2.5 0 0 0 312,401.2422 L312,360.7656 L302,350.7656 L204.5,350.7656 A2.5,2.5 0 0 0 202,353.2656 " fill="#F1F1F1" style="stroke:#181818;stroke-width:0.5;"/><path d="M302,350.7656 L302,358.2656 A2.5,2.5 0 0 0 304.5,360.7656 L312,360.7656 " fill="#F1F1F1" style="stroke:#181818;stroke-width:0.5;"/><text fill="#000000" font-family="sans-serif" font-size="14" font-style="italic" lengthAdjust="spacing" textLength="38" x="238" y="374.3008">«File»</text><text fill="#000000" font-family="sans-serif" font-size="14" lengthAdjust="spacing" textLength="90" x="212" y="390.7891">package.json</text></g><!--MD5=[aa3b458352135463a5a0f2d2a48ef4d9]
entity models--><g id="elem_models"><rect fill="#F1F1F1" height="48.9766" rx="2.5" ry="2.5" style="stroke:#181818;stroke-width:0.5;" width="108" x="537" y="557.7656"/><rect fill="#F1F1F1" height="48.9766" rx="2.5" ry="2.5" style="stroke:#181818;stroke-width:0.5;" width="108" x="533" y="553.7656"/><text fill="#000000" font-family="sans-serif" font-size="14" font-style="italic" lengthAdjust="spacing" textLength="92" x="541" y="575.3008">«YAML/JSON»</text><text fill="#000000" font-family="sans-serif" font-size="14" lengthAdjust="spacing" textLength="49" x="562.5" y="591.7891">Models</text></g><!--MD5=[08d9b5744ff2301332a382dd7d96185e]
entity schema--><g id="elem_schema"><rect fill="#F1F1F1" height="48.9766" rx="2.5" ry="2.5" style="stroke:#181818;stroke-width:0.5;" width="120" x="563" y="354.7656"/><rect fill="#F1F1F1" height="48.9766" rx="2.5" ry="2.5" style="stroke:#181818;stroke-width:0.5;" width="120" x="559" y="350.7656"/><text fill="#000000" font-family="sans-serif" font-size="14" font-style="italic" lengthAdjust="spacing" textLength="104" x="567" y="372.3008">«JSON Schema»</text><text fill="#000000" font-family="sans-serif" font-size="14" lengthAdjust="spacing" textLength="60" x="589" y="388.7891">Schemas</text></g><!--MD5=[e995828b287532168f8bc89fd17508f6]
entity template--><g id="elem_template"><rect fill="#F1F1F1" height="48.9766" rx="2.5" ry="2.5" style="stroke:#181818;stroke-width:0.5;" width="176" x="503" y="756.7656"/><rect fill="#F1F1F1" height="48.9766" rx="2.5" ry="2.5" style="stroke:#181818;stroke-width:0.5;" width="176" x="499" y="752.7656"/><text fill="#000000" font-family="sans-serif" font-size="14" font-style="italic" lengthAdjust="spacing" textLength="160" x="507" y="774.3008">«Handlebars Template»</text><text fill="#000000" font-family="sans-serif" font-size="14" lengthAdjust="spacing" textLength="71" x="551.5" y="790.7891">Templates</text></g><!--MD5=[ce4c7fec84eccde686f151fd39cc7387]
entity script--><g id="elem_script"><rect fill="#F1F1F1" height="48.9766" rx="2.5" ry="2.5" style="stroke:#181818;stroke-width:0.5;" width="151" x="351.5" y="354.7656"/><rect fill="#F1F1F1" height="48.9766" rx="2.5" ry="2.5" style="stroke:#181818;stroke-width:0.5;" width="151" x="347.5" y="350.7656"/><text fill="#000000" font-family="sans-serif" font-size="14" font-style="italic" lengthAdjust="spacing" textLength="135" x="355.5" y="372.3008">«JavaScript Module»</text><text fill="#000000" font-family="sans-serif" font-size="14" lengthAdjust="spacing" textLength="124" x="361" y="388.7891">Processing Scripts</text></g><!--MD5=[c661d977cad040094ee01910682146de]
entity output--><g id="elem_output"><rect fill="#F1F1F1" height="32.4883" rx="2.5" ry="2.5" style="stroke:#181818;stroke-width:0.5;" width="145" x="234.5" y="765.2656"/><rect fill="#F1F1F1" height="32.4883" rx="2.5" ry="2.5" style="stroke:#181818;stroke-width:0.5;" width="145" x="230.5" y="761.2656"/><text fill="#000000" font-family="sans-serif" font-size="14" lengthAdjust="spacing" textLength="129" x="238.5" y="782.8008">Model Output Files</text></g><!--MD5=[8fc3522a43f8c7199df5e09e5bb0188e]
entity user--><g id="elem_user"><ellipse cx="41" cy="64.2656" fill="#F1F1F1" rx="8" ry="8" style="stroke:#181818;stroke-width:0.5;"/><path d="M41,72.2656 L41,99.2656 M28,80.2656 L54,80.2656 M41,99.2656 L28,114.2656 M41,99.2656 L54,114.2656 " fill="none" style="stroke:#181818;stroke-width:0.5;"/><text fill="#000000" font-family="sans-serif" font-size="14" lengthAdjust="spacing" textLength="31" x="25.5" y="129.3008">User</text></g><!--MD5=[f5c629cea7f5b71571c59f1b01a97a20]
entity trellis--><g id="elem_trellis"><ellipse cx="41" cy="377.2539" fill="#F1F1F1" rx="12" ry="12" style="stroke:#181818;stroke-width:0.5;"/><polygon fill="#181818" points="37,365.2539,43,360.2539,41,365.2539,43,370.2539,37,365.2539" style="stroke:#181818;stroke-width:1.0;"/><text fill="#000000" font-family="sans-serif" font-size="14" lengthAdjust="spacing" textLength="67" x="7.5" y="406.7891">Trellis CLI</text><text fill="#000000" font-family="sans-serif" font-size="14" font-style="italic" lengthAdjust="spacing" textLength="70" x="6" y="358.3008">«CLI Tool»</text></g><!--MD5=[95cc6159fa878d839619dd400f44bdc9]
link user to trellis--><g id="link_user_trellis"><path d="M41,131.8556 C41,185.9456 41,285.8756 41,339.6756 " fill="none" id="user-to-trellis" style="stroke:#181818;stroke-width:1.0;"/><polygon fill="#181818" points="41,344.7356,45,335.7356,41,339.7356,37,335.7356,41,344.7356" style="stroke:#181818;stroke-width:1.0;"/><text fill="#000000" font-family="sans-serif" font-size="13" lengthAdjust="spacing" textLength="28" x="51" y="175.334">User</text><text fill="#000000" font-family="sans-serif" font-size="13" font-weight="bold" lengthAdjust="spacing" textLength="46" x="42" y="190.6445">«Uses»</text><text fill="#000000" font-family="sans-serif" font-size="13" lengthAdjust="spacing" textLength="20" x="55" y="205.9551">CLI</text></g><!--MD5=[d24b031ebd39dc55ccf3add47459787a]
link trellis to project--><g id="link_trellis_project"><path d="M76.1,377.2656 C93.575,377.2656 114.64,377.2656 132.09,377.2656 C140.815,377.2656 148.6363,377.2656 154.6531,377.2656 C156.1573,377.2656 157.5488,377.2656 158.8134,377.2656 " fill="none" id="trellis-to-project" style="stroke:#181818;stroke-width:1.0;"/><polygon fill="#181818" points="158.8134,377.2656,149.8134,373.2656,153.8134,377.2656,149.8134,381.2656,158.8134,377.2656" style="stroke:#181818;stroke-width:1.0;"/><text fill="#000000" font-family="sans-serif" font-size="13" lengthAdjust="spacing" textLength="20" x="111.32" y="340.834">CLI</text><text fill="#000000" font-family="sans-serif" font-size="13" font-weight="bold" lengthAdjust="spacing" textLength="54" x="94.32" y="356.1445">«Loads»</text><text fill="#000000" font-family="sans-serif" font-size="13" lengthAdjust="spacing" textLength="43" x="99.82" y="371.4551">Project</text></g><!--MD5=[1f0c6d119ea444535b51bd4eca607ab3]
link schema to models--><g id="link_schema_models"><path d="M616.88,404.1356 C611,441.0656 600.22,508.8156 593.92,548.3456 " fill="none" id="schema-to-models" style="stroke:#181818;stroke-width:1.0;"/><polygon fill="#181818" points="593.1,553.4956,598.4633,545.2352,593.8849,548.5576,590.5625,543.9793,593.1,553.4956" style="stroke:#181818;stroke-width:1.0;"/><text fill="#000000" font-family="sans-serif" font-size="13" lengthAdjust="spacing" textLength="48" x="625" y="453.334">Schema</text><text fill="#000000" font-family="sans-serif" font-size="13" font-weight="bold" lengthAdjust="spacing" textLength="76" x="611" y="468.6445">«Validates»</text><text fill="#000000" font-family="sans-serif" font-size="13" lengthAdjust="spacing" textLength="45" x="626.5" y="483.9551">Models</text></g><!--MD5=[91c73b7551893789dd2613072ab00c55]
link script to models--><g id="link_script_models"><path d="M446.1,404.1356 C476.49,441.3656 532.42,509.9256 564.56,549.3156 " fill="none" id="script-to-models" style="stroke:#181818;stroke-width:1.0;"/><polygon fill="#181818" points="567.98,553.4956,565.371,543.9986,564.8115,549.6277,559.1824,549.0683,567.98,553.4956" style="stroke:#181818;stroke-width:1.0;"/><text fill="#000000" font-family="sans-serif" font-size="13" lengthAdjust="spacing" textLength="36" x="530" y="453.334">Script</text><text fill="#000000" font-family="sans-serif" font-size="13" font-weight="bold" lengthAdjust="spacing" textLength="72" x="512" y="468.6445">«Enriches»</text><text fill="#000000" font-family="sans-serif" font-size="13" lengthAdjust="spacing" textLength="45" x="525.5" y="483.9551">Models</text></g><!--MD5=[5f52734f0ef0c08e183890548676dde1]
link models to template--><g id="link_models_template"><path d="M589,607.0156 C589,643.1556 589,708.7956 589,747.4656 " fill="none" id="models-to-template" style="stroke:#181818;stroke-width:1.0;"/><polygon fill="#181818" points="589,752.5056,593,743.5056,589,747.5056,585,743.5056,589,752.5056" style="stroke:#181818;stroke-width:1.0;"/><text fill="#000000" font-family="sans-serif" font-size="13" lengthAdjust="spacing" textLength="45" x="601.5" y="652.334">Models</text><text fill="#000000" font-family="sans-serif" font-size="13" font-weight="bold" lengthAdjust="spacing" textLength="68" x="590" y="667.6445">«Fed Into»</text><text fill="#000000" font-family="sans-serif" font-size="13" lengthAdjust="spacing" textLength="58" x="595" y="682.9551">Template</text></g><!--MD5=[38ace04a8cfdbc879725300347d2eead]
link template to output--><g id="link_template_output"><path d="M498.95,779.2656 C462.31,779.2656 420.33,779.2656 384.81,779.2656 " fill="none" id="template-to-output" style="stroke:#181818;stroke-width:1.0;"/><polygon fill="#181818" points="379.62,779.2656,388.62,783.2656,384.62,779.2656,388.62,775.2656,379.62,779.2656" style="stroke:#181818;stroke-width:1.0;"/><text fill="#000000" font-family="sans-serif" font-size="13" lengthAdjust="spacing" textLength="58" x="410.25" y="742.834">Template</text><text fill="#000000" font-family="sans-serif" font-size="13" font-weight="bold" lengthAdjust="spacing" textLength="83" x="397.75" y="758.1445">«Generates»</text><text fill="#000000" font-family="sans-serif" font-size="13" lengthAdjust="spacing" textLength="77" x="400.75" y="773.4551">Output Files</text></g><!--MD5=[0a87240d7608aab6bc1424279ad3d856]
@startuml App Architecture
header Made by Garrett Sutula
title __Trellis CLI__ - Application Architecture

actor "User" as user
control "Trellis CLI" as trellis <<CLI Tool>>
package "Trellis Project" as project <<Folder>> {
  package "./models/..." as modelFolder <<Folder>> {
      collections "Models" as models <<YAML/JSON>>
  }
  package "./schemas/..." as schemaFolder {
      collections "Schemas" as schema <<JSON Schema>>
  }
  package "./templates/..." as templatesFolder <<Folder>> {
    collections "Templates" as template <<Handlebars Template>>
  }
  package "./processing/..." as scriptsFolder <<Folder>> {
    collections "Processing Scripts" as script <<JavaScript Module>>
  }
  package "./output/..." as outputFolder <<Folder>> {
    collections "Model Output Files" as output
  }
  file "package.json" <<File>>
}


user - -> trellis: User\n**<<Uses>>**\nCLI
trellis -> project: CLI\n**<<Loads>>**\nProject
schema - -> models: Schema\n**<<Validates>>**\nModels
script - -> models: Script\n**<<Enriches>>**\nModels
models - -> template: Models\n**<<Fed Into>>**\nTemplate
template -> output: Template\n**<<Generates>>**\nOutput Files

@enduml

PlantUML version 1.2022.5(Sat Apr 30 06:55:52 EDT 2022)
(GPL source distribution)
Java Runtime: OpenJDK Runtime Environment
JVM: OpenJDK 64-Bit Server VM
Default Encoding: UTF-8
Language: en
Country: US
--></g></svg>
